# xmcd
#
# Track frame offsets:
#	182
#	12355
#	24482
#	36007
#	49155
#	63037
#	75545
#	87995
#	101045
#	112757
#	125407
#	139220
#	149935
#	162020
#	173782
#	185975
#	198415
#	210352
#
# Disc length: 2968 seconds
#
# Revision: 1
# Processed by: cddbd v1.5.1PL2 Copyright (c) Steve Scherf et al.
# Submitted via: EasyCDDAExtractor 6.0.0.1
#
DISCID=f70b9612
DTITLE=Bob Wills and The Texas Playboys - Country Music  CM024
DYEAR=1999
DGENRE=Country
TTITLE0=Roly-Poly # 3 ('46)
TTITLE1=New San Antonio Rose # 3 ('44)
TTITLE2=New Spanish Two-Step # 1 ('46)
TTITLE3=Dusty Skies
TTITLE4=Osage Stomp
TTITLE5=I Ain't Got Nobody
TTITLE6=Weary Of The Same Ol' Stuff
TTITLE7=Sugar Blues
TTITLE8=Miss Molly
TTITLE9=Bob Wills Special
TTITLE10=Cherokee Maiden
TTITLE11=Never No More Hard Time Blues
TTITLE12=That's What I Like About The South
TTITLE13=Whoa Babe
TTITLE14=Big Beaver
TTITLE15=Bring It On Down To My House
TTITLE16=I Can't Go On This Way # 4 ('46)
TTITLE17=Take Me Back To Tulsa
EXTD=
EXTT0=
EXTT1=
EXTT2=
EXTT3=
EXTT4=
EXTT5=
EXTT6=
EXTT7=
EXTT8=
EXTT9=
EXTT10=
EXTT11=
EXTT12=
EXTT13=
EXTT14=
EXTT15=
EXTT16=
EXTT17=
PLAYORDER=
